<svg xmlns="http://www.w3.org/2000/svg" data-name="Layer 1" viewBox="0 0 100 125" x="0px" y="0px"><path fill="#185b95" d="M36.94,21a3.83,3.83,0,0,0,0-5.41L22.54,1.13A3.8,3.8,0,0,0,17.81.59a84.11,84.11,0,0,0-8.39,6L30.31,27.52Z"/><path fill="#185b95" d="M99.41,82.19a3.79,3.79,0,0,0-.53-4.71L84.43,63a3.81,3.81,0,0,0-5.41,0l-6.54,6.63,20.9,20.9A81.74,81.74,0,0,0,99.41,82.19Z"/><path fill="#185b95" d="M68.74,73.34c-6.79.71-19.45-3.32-29.1-13s-13.69-22.32-13-29.1c0.24-.27.53-0.59,0.87-0.94L6.47,9.26c-3.25,3.13-5.9,6.63-6.28,10-3.75,32.22,48.35,84.32,80.57,80.57,3.34-.39,6.84-3,10-6.27L69.68,72.47Q69.14,73,68.74,73.34Z"/></svg>