<svg xmlns="http://www.w3.org/2000/svg" xmlns:xlink="http://www.w3.org/1999/xlink" version="1.1" x="0px" y="0px" viewBox="0 0 1024 1280" style="enable-background:new 0 0 1024 1024;" xml:space="preserve"><g><g><g><path fill="#185b95" d="M501.4,179c12.3,12.3,24.5,24.5,36.8,36.8c29.3,29.3,58.6,58.6,88,88c35.4,35.4,70.9,70.9,106.3,106.3     c30.6,30.6,61.3,61.3,91.9,91.9c14.9,14.9,29.6,30.1,44.7,44.7c0.2,0.2,0.4,0.4,0.6,0.6c0-23.6,0-47.1,0-70.7     c-12.3,12.3-24.5,24.5-36.8,36.8c-29.3,29.3-58.6,58.6-88,88c-35.4,35.4-70.9,70.9-106.3,106.3c-30.6,30.6-61.3,61.3-91.9,91.9     c-14.9,14.9-30,29.6-44.7,44.7c-0.2,0.2-0.4,0.4-0.6,0.6c-9.1,9.1-14.6,22.5-14.6,35.4c0,12.3,5.4,26.9,14.6,35.4     c9.5,8.7,22,15.2,35.4,14.6c13.3-0.6,25.8-5.1,35.4-14.6c12.3-12.3,24.5-24.5,36.8-36.8c29.3-29.3,58.6-58.6,88-88     c35.4-35.4,70.9-70.9,106.3-106.3c30.6-30.6,61.3-61.3,91.9-91.9c14.9-14.9,30-29.6,44.7-44.7c0.2-0.2,0.4-0.4,0.6-0.6     c19.1-19.1,19.1-51.6,0-70.7c-12.3-12.3-24.5-24.5-36.8-36.8c-29.3-29.3-58.6-58.6-88-88c-35.4-35.4-70.9-70.9-106.3-106.3     c-30.6-30.6-61.3-61.3-91.9-91.9c-14.9-14.9-29.6-30-44.7-44.7c-0.2-0.2-0.4-0.4-0.6-0.6c-9.1-9.1-22.5-14.6-35.4-14.6     c-12.3,0-26.9,5.4-35.4,14.6c-8.7,9.5-15.2,22-14.6,35.4C487.4,156.9,491.9,169.4,501.4,179L501.4,179z"/></g></g><g><g><path fill="#185b95"  d="M83.4,179c12.3,12.3,24.5,24.5,36.8,36.8c29.3,29.3,58.6,58.6,88,88c35.4,35.4,70.9,70.9,106.3,106.3     c30.6,30.6,61.3,61.3,91.9,91.9c14.9,14.9,29.6,30.1,44.7,44.7c0.2,0.2,0.4,0.4,0.6,0.6c0-23.6,0-47.1,0-70.7     c-12.3,12.3-24.5,24.5-36.8,36.8c-29.3,29.3-58.6,58.6-88,88c-35.4,35.4-70.9,70.9-106.3,106.3c-30.6,30.6-61.3,61.3-91.9,91.9     c-14.9,14.9-30,29.6-44.7,44.7c-0.2,0.2-0.4,0.4-0.6,0.6c-9.1,9.1-14.6,22.5-14.6,35.4c0,12.3,5.4,26.9,14.6,35.4     c9.5,8.7,22,15.2,35.4,14.6c13.3-0.6,25.8-5.1,35.4-14.6c12.3-12.3,24.5-24.5,36.8-36.8c29.3-29.3,58.6-58.6,88-88     c35.4-35.4,70.9-70.9,106.3-106.3c30.6-30.6,61.3-61.3,91.9-91.9c14.9-14.9,30-29.6,44.7-44.7c0.2-0.2,0.4-0.4,0.6-0.6     c19.1-19.1,19.1-51.6,0-70.7c-12.3-12.3-24.5-24.5-36.8-36.8c-29.3-29.3-58.6-58.6-88-88c-35.4-35.4-70.9-70.9-106.3-106.3     c-30.6-30.6-61.3-61.3-91.9-91.9c-14.9-14.9-29.6-30-44.7-44.7c-0.2-0.2-0.4-0.4-0.6-0.6c-9.1-9.1-22.5-14.6-35.4-14.6     c-12.3,0-26.9,5.4-35.4,14.6c-8.7,9.5-15.2,22-14.6,35.4C69.4,156.9,73.9,169.4,83.4,179L83.4,179z"/></g></g></g></svg>