<svg xmlns="http://www.w3.org/2000/svg" xmlns:xlink="http://www.w3.org/1999/xlink" version="1.1" x="0px" y="0px" viewBox="0 0 150 187.5" style="enable-background:new 0 0 150 150;" xml:space="preserve"><g><g><path fill="#185b95" d="M123.5,34.4599609h-20.4599609c-1.6542969,0-3-1.3457031-3-3V11c0-0.3481445,0.0665894-0.6838379,0.1793823-1H26.5    c-0.5499878,0-1,0.4499512-1,1v128c0,0.5500488,0.4500122,1,1,1h97c0.5499878,0,1-0.4499512,1-1V34.284668    C124.1846313,34.3950195,123.8493042,34.4599609,123.5,34.4599609z M111,58.3000488v45.5c0,0.5500488-0.4500122,1-1,1h-8.8400269    c-0.5499878,0-1-0.4499512-1-1v-45.5c0-0.5500488,0.4500122-1,1-1H110C110.5499878,57.3000488,111,57.75,111,58.3000488z     M43.0058594,74.4306641l18.3515625-19.3706055c0.1914063-0.203125,0.4765625-0.3105469,0.7402344-0.3125    c0.2792969,0.0043945,0.5449219,0.1254883,0.7314453,0.3339844l7.9550781,8.9077148l15.0712891-14.6352539    c0.1904297-0.1855469,0.4160156-0.2875977,0.7148438-0.2827148c0.265625,0.0048828,0.5195313,0.1157227,0.703125,0.3081055    l4.7314453,4.9384766l11.84375-11.84375h-7.0419922c-0.5527344,0-1-0.4477539-1-1s0.4472656-1,1-1h9.4560547    c0.130188,0,0.2598877,0.0266113,0.3820801,0.0771484c0.244751,0.1013184,0.4395752,0.2961426,0.5408936,0.5410156    c0.0505371,0.1220703,0.0770264,0.251709,0.0770264,0.3818359v9.4555664c0,0.5522461-0.4472656,1-1,1s-1-0.4477539-1-1v-7.0415039    L92.6962891,56.4545898c-0.1904297,0.1899414-0.4628906,0.2719727-0.7177734,0.2929688    c-0.2685547-0.0029297-0.5253906-0.1142578-0.7109375-0.3081055l-4.7412109-4.9492188L71.4287109,66.1503906    c-0.1953125,0.1899414-0.4667969,0.2900391-0.7314453,0.2822266c-0.2724609-0.0097656-0.5292969-0.1303711-0.7109375-0.3334961    l-7.9248047-8.8745117L44.4570313,75.8066406c-0.1962891,0.2075195-0.4609375,0.3120117-0.7255859,0.3120117    c-0.2470703,0-0.4941406-0.0908203-0.6875-0.2739258C42.6425781,75.4648438,42.6259766,74.8320313,43.0058594,74.4306641z     M95.8300171,70.3000488v33.5c0,0.5500488-0.4500122,1-1,1H86c-0.5499878,0-1-0.4499512-1-1v-33.5c0-0.5500488,0.4500122-1,1-1    h8.8300171C95.3800049,69.3000488,95.8300171,69.75,95.8300171,70.3000488z M80.6599731,80.3000488v23.5    c0,0.5500488-0.4499512,1-1,1h-8.8299561c-0.5499878,0-1-0.4499512-1-1v-23.5c0-0.5500488,0.4500122-1,1-1h8.8299561    C80.210022,79.3000488,80.6599731,79.75,80.6599731,80.3000488z M65.5,70.3000488v33.5c0,0.5500488-0.4500122,1-1,1h-8.8400269    c-0.5499878,0-1-0.4499512-1-1v-33.5c0-0.5500488,0.4500122-1,1-1H64.5C65.0499878,69.3000488,65.5,69.75,65.5,70.3000488z     M39.5,84.3000488c0-0.5500488,0.4500122-1,1-1h8.8300171c0.5499878,0,1,0.4499512,1,1v19.5c0,0.5500488-0.4500122,1-1,1H40.5    c-0.5499878,0-1-0.4499512-1-1V84.3000488z M115.1630859,130.0043945H35.3300781c-0.5527344,0-1-0.4477539-1-1s0.4472656-1,1-1    h79.8330078c0.5527344,0,1,0.4477539,1,1S115.7158203,130.0043945,115.1630859,130.0043945z M115.1630859,122.0043945H35.3300781    c-0.5527344,0-1-0.4477539-1-1s0.4472656-1,1-1h79.8330078c0.5527344,0,1,0.4477539,1,1    S115.7158203,122.0043945,115.1630859,122.0043945z M115.1630859,114.0043945H35.3300781c-0.5527344,0-1-0.4477539-1-1    s0.4472656-1,1-1h79.8330078c0.5527344,0,1,0.4477539,1,1S115.7158203,114.0043945,115.1630859,114.0043945z"/></g><g><path fill="#185b95" d="M103.039978,32.4599609H123.5c0.4000244,0,0.7700195-0.2399902,0.9199829-0.6098633    c0.1600342-0.380127,0.0700073-0.8100586-0.2199707-1.0900879L103.75,10.3000488    c-0.289978-0.2900391-0.7199707-0.3701172-1.0900269-0.2199707C102.2800293,10.2399902,102.039978,10.6000977,102.039978,11    v20.4599609C102.039978,32.0200195,102.4899902,32.4599609,103.039978,32.4599609z"/></g></g></svg>