<svg xmlns="http://www.w3.org/2000/svg" xmlns:xlink="http://www.w3.org/1999/xlink" version="1.1" x="0px" y="0px" viewBox="0 0 95 118.75" enable-background="new 0 0 95 95" xml:space="preserve"><g><path fill="#185b95" d="M42.069,89.313v-9.737c-6.868-0.305-13.531-2.15-17.423-4.405l3.075-11.992c4.302,2.356,10.352,4.51,17.012,4.51   c5.84,0,9.839-2.255,9.839-6.353c0-3.896-3.28-6.354-10.862-8.92c-10.969-3.688-18.451-8.811-18.451-18.754   c0-9.017,6.355-16.088,17.321-18.243V5.687h10.043v9.017c6.867,0.307,11.483,1.741,14.861,3.382L64.515,29.67   c-2.666-1.132-7.381-3.488-14.76-3.488c-6.663,0-8.816,2.869-8.816,5.738c0,3.385,3.588,5.535,12.299,8.813   c12.198,4.306,17.116,9.942,17.116,19.165c0,9.125-6.459,16.912-18.241,18.965v10.45H42.069z"/></g></svg>