<?xml version="1.0" encoding="UTF-8"?>
<!-- Generator: Adobe Illustrator 16.0.0, SVG Export Plug-In . SVG Version: 6.00 Build 0)  -->
<!DOCTYPE svg PUBLIC "-//W3C//DTD SVG 1.1//EN" "http://www.w3.org/Graphics/SVG/1.1/DTD/svg11.dtd">
<svg version="1.1" id="Layer_1" xmlns="http://www.w3.org/2000/svg" xmlns:xlink="http://www.w3.org/1999/xlink" x="0px" y="0px" width="24px" height="24px" viewBox="0 0 24 24" enable-background="new 0 0 24 24" xml:space="preserve">
<path fill="#55ACEE" d="M0,0v24h24V0H0z M18.861,9.237c0.209,4.617-3.234,9.765-9.329,9.765c-1.854,0-3.579-0.543-5.032-1.475  c1.742,0.205,3.48-0.278,4.86-1.359c-1.437-0.027-2.649-0.977-3.066-2.279c0.515,0.098,1.021,0.068,1.482-0.057  c-1.579-0.316-2.668-1.739-2.633-3.26c0.442,0.246,0.949,0.394,1.486,0.411C5.168,10.006,4.754,8.076,5.613,6.6  c1.619,1.986,4.038,3.293,6.766,3.43C11.9,7.977,13.458,6,15.577,6c0.944,0,1.797,0.398,2.396,1.037  c0.748-0.147,1.451-0.42,2.086-0.796c-0.246,0.767-0.767,1.41-1.443,1.816c0.664-0.08,1.297-0.256,1.885-0.517  C20.061,8.196,19.503,8.774,18.861,9.237z"/>
</svg>